<svg width="24" height="25" viewBox="0 0 24 25" fill="none" xmlns="http://www.w3.org/2000/svg">
<path d="M5.7677 10.6035C5.52799 10.6035 5.31492 10.698 5.15512 10.8734C4.982 11.0488 4.9021 11.2647 4.9021 11.5211C4.9021 11.7774 4.982 11.9798 5.15512 12.1687C5.32824 12.3441 5.52799 12.4386 5.7677 12.4386C6.0074 12.4386 6.22047 12.3441 6.39359 12.1687C6.56671 11.9933 6.65993 11.7774 6.65993 11.5211C6.65993 11.2647 6.56671 11.0488 6.39359 10.8734C6.22047 10.6845 6.02072 10.6035 5.7677 10.6035Z" fill="#BDBDBD"/>
<path d="M13.2384 10.5898C12.9987 10.5898 12.7856 10.6843 12.6258 10.8597C12.4527 11.0351 12.3728 11.251 12.3728 11.5074C12.3728 11.7638 12.4527 11.9662 12.6258 12.1551C12.7989 12.3305 12.9987 12.4249 13.2384 12.4249C13.4781 12.4249 13.6912 12.3305 13.8643 12.1551C14.0374 11.9796 14.1306 11.7638 14.1306 11.5074C14.1306 11.251 14.0374 11.0486 13.8643 10.8597C13.7045 10.6708 13.4914 10.5898 13.2384 10.5898Z" fill="#BDBDBD"/>
<path d="M18.2323 10.6035C17.9926 10.6035 17.7795 10.698 17.6197 10.8734C17.4466 11.0488 17.3667 11.2647 17.3667 11.5211C17.3667 11.7774 17.4466 11.9798 17.6197 12.1687C17.7928 12.3441 17.9926 12.4386 18.2323 12.4386C18.472 12.4386 18.6851 12.3441 18.8582 12.1687C19.0313 11.9933 19.1245 11.7774 19.1245 11.5211C19.1245 11.2647 19.0313 11.0488 18.8582 10.8734C18.6851 10.6845 18.472 10.6035 18.2323 10.6035Z" fill="#BDBDBD"/>
<path d="M20.4429 3.93774H3.55704C2.2653 3.93774 1.19995 5.0172 1.19995 6.32605V16.0007C1.19995 17.3096 2.2653 18.389 3.55704 18.389H10.1889C10.1889 18.389 11.4673 21.9377 11.9334 21.9377C12.3995 21.9377 13.7844 18.389 13.7844 18.389H20.4429C21.7346 18.389 22.8 17.3096 22.8 16.0007V6.32605C22.8 5.0172 21.7346 3.93774 20.4429 3.93774ZM7.47221 12.8703C7.13929 13.2481 6.61993 13.41 6.06062 13.41C5.55457 13.41 5.1817 13.2616 4.91536 13.0457H4.90205V13.3156H3.63694V7.71586H4.90205V9.86128H4.92868C5.27492 9.56443 5.72769 9.46998 6.26037 9.44299C6.71315 9.4295 7.19255 9.71286 7.48553 10.0502C7.76518 10.3875 7.97825 10.9138 7.97825 11.494C7.97825 12.1281 7.81845 12.4925 7.47221 12.8703ZM10.2022 13.3695H8.91043C8.91043 13.3695 8.91043 10.428 8.91043 9.90176C8.91043 9.10566 8.28454 8.99771 8.28454 8.99771V7.60791C8.28454 7.60791 10.0956 7.71585 10.2022 9.94224C10.2022 10.5764 10.2022 13.3695 10.2022 13.3695ZM15.2759 12.3036C15.1694 12.5599 15.0096 12.7758 14.7965 12.9782C14.5967 13.1671 14.357 13.3156 14.0907 13.4235C13.8244 13.5314 13.5447 13.5854 13.2517 13.5854C12.9588 13.5854 12.6791 13.5314 12.4261 13.4235C12.1598 13.3156 11.9201 13.1671 11.7203 12.9782C11.5072 12.7758 11.3474 12.5464 11.2409 12.3036C11.1344 12.0607 11.0811 11.7908 11.0811 11.5075C11.0811 11.2241 11.1344 10.9677 11.2409 10.7114C11.3474 10.4685 11.5072 10.2391 11.7203 10.0367C11.9334 9.84779 12.1598 9.69936 12.4261 9.59142C12.6924 9.48347 12.9721 9.4295 13.2517 9.4295C13.5447 9.4295 13.8244 9.48347 14.0907 9.59142C14.357 9.69936 14.5967 9.84779 14.7965 10.0367C15.0096 10.2391 15.1561 10.455 15.2759 10.7114C15.3824 10.9677 15.4357 11.2241 15.4357 11.5075C15.4357 11.7908 15.3824 12.0472 15.2759 12.3036ZM20.363 12.8568C20.363 13.8418 20.1765 14.4355 19.7504 14.8538C19.231 15.353 18.4986 15.38 17.886 15.2991V14.2871C18.4054 14.341 19.1112 13.9902 19.1112 13.3156V13.0592H19.0979C18.8049 13.464 18.3921 13.6124 17.8194 13.6124C17.3001 13.6124 16.8473 13.4235 16.541 13.0592C16.2347 12.6949 16.0882 12.2091 16.0882 11.6019C16.0882 10.9138 16.2614 10.374 16.5943 9.96923C16.9405 9.56443 17.4199 9.37552 17.9792 9.37552C18.472 9.37552 18.7916 9.49696 19.0979 9.78032H19.1112V9.46998H20.3763V12.8568H20.363Z" fill="#BDBDBD"/>
</svg>
