<svg width="24" height="25" viewBox="0 0 24 25" fill="none" xmlns="http://www.w3.org/2000/svg">
<path d="M11.9999 9.54395C10.2882 9.54395 8.83325 10.9989 8.83325 12.7106C8.83325 14.4223 10.2882 15.8773 11.9999 15.8773C13.7116 15.8773 15.1666 14.4223 15.1666 12.7106C15.1666 10.9989 13.7116 9.54395 11.9999 9.54395Z" fill="#BDBDBD"/>
<path d="M16.0591 3.21045H8.02727C4.91818 3.21045 2.5 5.62863 2.5 8.65136V16.6832C2.5 19.7923 4.91818 22.2104 8.02727 22.2104H16.0591C19.0818 22.2104 21.5 19.7923 21.5 16.6832V8.65136C21.5 5.62863 19.0818 3.21045 16.0591 3.21045ZM12 17.7195C9.23636 17.7195 7.07727 15.4741 7.07727 12.7968C7.07727 10.1195 9.23636 7.78772 12 7.78772C14.7636 7.78772 16.9227 10.0332 16.9227 12.7104C16.9227 15.3877 14.7636 17.7195 12 17.7195ZM17.0955 8.82409C16.4909 8.82409 15.9727 8.3059 15.9727 7.70136C15.9727 7.09681 16.4909 6.57863 17.0955 6.57863C17.7 6.57863 18.2182 7.09681 18.2182 7.70136C18.2182 8.3059 17.7 8.82409 17.0955 8.82409Z" fill="#BDBDBD"/>
</svg>
