<svg width="24" height="25" viewBox="0 0 24 25" fill="none" xmlns="http://www.w3.org/2000/svg">
<path d="M12.002 4.96045C12.0129 4.96045 18.8797 4.96098 20.5977 5.42627C21.5446 5.67852 22.2897 6.42766 22.542 7.38232C22.9999 9.10936 22.9961 12.7104 22.9961 12.7104C22.9961 12.7356 22.9944 16.3177 22.5381 18.0386C22.2858 18.9894 21.5407 19.7385 20.5938 19.9946C18.8781 20.4564 11.998 20.4565 11.998 20.4565C11.9875 20.4565 5.11662 20.456 3.40234 19.9946C2.45544 19.7424 1.71026 18.9932 1.45801 18.0386C1.00169 16.3177 1.00001 12.7356 1 12.7104C1 12.7104 1.00016 9.10932 1.46191 7.37842C1.71416 6.42763 2.45935 5.67849 3.40625 5.42236C5.12178 4.96059 12.002 4.96045 12.002 4.96045ZM9.75098 15.9819L15.502 12.7104L9.75098 9.43896V15.9819Z" fill="#BDBDBD"/>
</svg>
