<svg width="53" height="52" viewBox="0 0 53 52" fill="none" xmlns="http://www.w3.org/2000/svg">
<rect x="0.5" width="52" height="52" rx="26" fill="#BDBDBD"/>
<path fill-rule="evenodd" clip-rule="evenodd" d="M33.572 18.5071C33.624 18.598 33.715 18.663 33.832 18.663C36.952 18.663 39.5 21.2081 39.5 24.3247V32.0381C39.5 35.1546 36.952 37.6998 33.832 37.6998H19.168C16.035 37.6998 13.5 35.1546 13.5 32.0381V24.3247C13.5 21.2081 16.035 18.663 19.168 18.663C19.272 18.663 19.376 18.611 19.415 18.5071L19.493 18.3513C19.5378 18.257 19.5838 18.1601 19.6305 18.0618C19.9631 17.3613 20.331 16.5862 20.559 16.1308C21.157 14.9621 22.171 14.3128 23.432 14.2998H29.555C30.816 14.3128 31.843 14.9621 32.441 16.1308C32.6458 16.5398 32.9577 17.1988 33.2584 17.8339C33.3204 17.9649 33.382 18.0949 33.442 18.2214L33.572 18.5071ZM32.6229 23.4931C32.6229 24.1424 33.143 24.6618 33.7929 24.6618C34.4429 24.6618 34.976 24.1424 34.976 23.4931C34.976 22.8438 34.4429 22.3114 33.7929 22.3114C33.143 22.3114 32.6229 22.8438 32.6229 23.4931ZM24.2509 25.5061C24.8619 24.8958 25.6549 24.5712 26.4999 24.5712C27.3449 24.5712 28.1379 24.8958 28.7359 25.4931C29.3339 26.0905 29.6589 26.8826 29.6589 27.7267C29.6459 29.4667 28.2419 30.8821 26.4999 30.8821C25.6549 30.8821 24.8619 30.5575 24.2639 29.9602C23.6659 29.3628 23.3409 28.5707 23.3409 27.7267V27.7137C23.3279 26.8956 23.6529 26.1035 24.2509 25.5061ZM30.1008 31.3362C29.1778 32.2581 27.9038 32.8295 26.4998 32.8295C25.1348 32.8295 23.8608 32.2971 22.8858 31.3362C21.9238 30.3623 21.3908 29.0897 21.3908 27.7262C21.3778 26.3757 21.9108 25.1031 22.8728 24.1292C23.8478 23.1553 25.1348 22.6229 26.4998 22.6229C27.8648 22.6229 29.1518 23.1553 30.1138 24.1162C31.0758 25.0901 31.6088 26.3757 31.6088 27.7262C31.5958 29.1416 31.0238 30.4142 30.1008 31.3362Z" fill="#FAFAFA"/>
</svg>
